<svg id="svg" version="1.1" xmlns="http://www.w3.org/2000/svg" xmlns:xlink="http://www.w3.org/1999/xlink" width="400" height="400" viewBox="0, 0, 400,400"><g id="svgg"><path id="path0" d="M139.453 61.300 C 133.230 63.216,131.469 66.454,131.426 76.067 C 131.409 79.768,131.479 82.714,131.581 82.611 C 131.898 82.294,133.216 85.601,132.946 86.037 C 132.803 86.269,132.877 86.334,133.116 86.187 C 133.629 85.870,134.832 87.467,134.494 88.015 C 134.362 88.228,134.428 88.295,134.640 88.164 C 134.852 88.032,135.626 88.328,136.361 88.821 C 139.138 90.685,137.031 90.625,200.156 90.621 L 259.961 90.617 261.914 89.688 C 267.292 87.128,269.009 83.083,268.644 73.828 C 268.377 67.051,267.066 64.470,262.730 62.182 L 260.742 61.133 200.586 61.066 C 167.500 61.030,139.990 61.135,139.453 61.300 M114.258 102.253 C 102.393 103.312,99.519 122.298,110.352 128.062 L 112.305 129.102 199.805 129.102 C 282.175 129.102,287.393 129.062,288.811 128.421 C 289.640 128.046,290.479 127.839,290.676 127.961 C 290.874 128.083,290.996 128.038,290.949 127.861 C 290.901 127.684,291.518 126.861,292.320 126.032 C 295.176 123.078,295.508 121.996,295.508 115.625 C 295.508 108.099,294.113 105.255,289.383 103.137 C 288.564 102.770,287.966 102.398,288.055 102.309 C 288.228 102.136,116.199 102.080,114.258 102.253 M214.491 274.118 C 218.741 274.282,219.942 275.229,220.225 278.638 C 220.647 283.731,219.731 284.145,205.372 285.363 C 193.475 286.372,191.633 286.573,193.388 286.666 C 196.325 286.821,216.897 284.734,217.988 284.170 C 220.487 282.877,221.451 279.234,220.066 276.315 C 219.047 274.167,218.234 273.818,214.464 273.908 L 211.133 273.989 214.491 274.118 M208.306 274.499 C 208.900 274.589,209.779 274.586,210.259 274.494 C 210.740 274.401,210.254 274.328,209.180 274.330 C 208.105 274.333,207.712 274.409,208.306 274.499 M200.586 275.000 L 198.242 275.259 200.195 275.279 C 201.270 275.290,203.291 275.171,204.688 275.014 L 207.227 274.729 205.078 274.735 C 203.896 274.738,201.875 274.857,200.586 275.000 M195.020 275.670 C 195.610 275.760,196.577 275.760,197.168 275.670 C 197.759 275.581,197.275 275.508,196.094 275.508 C 194.912 275.508,194.429 275.581,195.020 275.670 M190.534 276.064 C 191.236 276.151,192.291 276.149,192.878 276.060 C 193.465 275.971,192.891 275.900,191.602 275.902 C 190.313 275.904,189.832 275.977,190.534 276.064 M176.172 277.098 C 171.123 277.549,167.415 277.981,167.932 278.057 C 168.799 278.185,187.344 276.699,188.672 276.396 C 190.264 276.033,184.391 276.362,176.172 277.098 M163.770 278.405 C 164.360 278.494,165.327 278.494,165.918 278.405 C 166.509 278.315,166.025 278.242,164.844 278.242 C 163.662 278.242,163.179 278.315,163.770 278.405 M159.473 278.795 C 160.063 278.885,161.030 278.885,161.621 278.795 C 162.212 278.706,161.729 278.633,160.547 278.633 C 159.365 278.633,158.882 278.706,159.473 278.795 M155.176 279.186 C 155.767 279.276,156.733 279.276,157.324 279.186 C 157.915 279.097,157.432 279.023,156.250 279.023 C 155.068 279.023,154.585 279.097,155.176 279.186 M140.820 280.280 C 135.879 280.761,132.715 281.164,133.789 281.174 C 134.863 281.185,139.873 280.789,144.922 280.294 C 149.971 279.799,153.135 279.396,151.953 279.399 C 150.771 279.402,145.762 279.798,140.820 280.280 M128.613 281.530 C 129.204 281.619,130.171 281.619,130.762 281.530 C 131.353 281.440,130.869 281.367,129.688 281.367 C 128.506 281.367,128.022 281.440,128.613 281.530 M123.926 281.920 C 124.517 282.010,125.483 282.010,126.074 281.920 C 126.665 281.831,126.182 281.758,125.000 281.758 C 123.818 281.758,123.335 281.831,123.926 281.920 M119.934 282.531 C 114.348 285.357,117.384 293.056,124.023 292.903 L 126.758 292.839 123.828 292.608 C 120.469 292.342,119.405 291.858,118.340 290.112 C 116.550 287.176,117.939 283.380,121.106 282.551 C 122.275 282.245,122.529 282.086,121.875 282.068 C 121.338 282.054,120.464 282.262,119.934 282.531 M189.160 286.999 C 189.751 287.088,190.718 287.088,191.309 286.999 C 191.899 286.909,191.416 286.836,190.234 286.836 C 189.053 286.836,188.569 286.909,189.160 286.999 M184.863 287.389 C 185.454 287.479,186.421 287.479,187.012 287.389 C 187.603 287.300,187.119 287.226,185.938 287.226 C 184.756 287.226,184.272 287.300,184.863 287.389 M180.566 287.780 C 181.157 287.869,182.124 287.869,182.715 287.780 C 183.306 287.690,182.822 287.617,181.641 287.617 C 180.459 287.617,179.976 287.690,180.566 287.780 M172.656 288.281 L 170.117 288.537 172.266 288.559 C 173.447 288.571,175.557 288.452,176.953 288.295 L 179.492 288.010 177.344 288.018 C 176.162 288.022,174.053 288.141,172.656 288.281 M163.867 289.063 L 161.523 289.322 163.477 289.345 C 164.551 289.358,166.484 289.237,167.773 289.078 L 170.117 288.787 168.164 288.795 C 167.090 288.800,165.156 288.920,163.867 289.063 M154.883 289.844 L 152.539 290.103 154.492 290.123 C 155.566 290.134,157.588 290.015,158.984 289.858 L 161.523 289.572 159.375 289.578 C 158.193 289.582,156.172 289.701,154.883 289.844 M149.316 290.514 C 149.907 290.604,150.874 290.604,151.465 290.514 C 152.056 290.425,151.572 290.351,150.391 290.351 C 149.209 290.351,148.726 290.425,149.316 290.514 M141.211 291.017 C 139.492 291.171,135.576 291.522,132.509 291.797 C 129.442 292.072,127.016 292.381,127.119 292.484 C 127.291 292.656,138.408 291.773,145.313 291.039 C 147.570 290.799,147.794 290.728,146.289 290.732 C 145.215 290.735,142.930 290.863,141.211 291.017 M181.250 300.006 C 179.341 300.245,179.477 300.273,182.463 300.251 C 186.285 300.224,187.362 300.686,188.403 302.798 C 188.756 303.515,189.049 303.807,189.054 303.448 C 189.075 301.850,185.636 299.385,183.789 299.675 C 183.574 299.709,182.432 299.858,181.250 300.006 M172.461 300.781 L 170.117 301.041 172.266 301.064 C 173.447 301.077,175.469 300.956,176.758 300.796 L 179.102 300.505 176.953 300.514 C 175.771 300.518,173.750 300.639,172.461 300.781 M163.867 301.563 L 161.523 301.822 163.477 301.845 C 164.551 301.858,166.484 301.737,167.773 301.578 L 170.117 301.287 168.164 301.295 C 167.090 301.300,165.156 301.420,163.867 301.563 M153.125 302.547 C 150.537 302.818,149.461 303.029,150.586 303.045 C 151.660 303.061,154.561 302.844,157.031 302.564 C 159.502 302.283,160.645 302.059,159.570 302.065 C 158.496 302.072,155.596 302.289,153.125 302.547 M145.410 303.405 C 146.001 303.494,146.968 303.494,147.559 303.405 C 148.149 303.315,147.666 303.242,146.484 303.242 C 145.303 303.242,144.819 303.315,145.410 303.405 M141.119 303.796 C 141.712 303.886,142.591 303.883,143.072 303.791 C 143.552 303.698,143.066 303.624,141.992 303.627 C 140.918 303.630,140.525 303.706,141.119 303.796 M136.230 304.189 C 136.929 304.275,138.071 304.275,138.770 304.189 C 139.468 304.102,138.896 304.031,137.500 304.031 C 136.104 304.031,135.532 304.102,136.230 304.189 M132.134 304.577 C 132.728 304.667,133.607 304.665,134.087 304.572 C 134.568 304.479,134.082 304.406,133.008 304.409 C 131.934 304.412,131.541 304.487,132.134 304.577 M189.121 305.188 C 188.963 308.126,187.385 309.890,184.328 310.548 L 182.617 310.916 184.341 310.760 C 187.255 310.496,189.729 307.740,189.343 305.187 L 189.180 304.102 189.121 305.188 M127.644 304.971 C 128.346 305.058,129.400 305.056,129.987 304.967 C 130.574 304.877,130.000 304.806,128.711 304.809 C 127.422 304.811,126.942 304.884,127.644 304.971 M121.998 305.840 C 120.782 306.581,119.668 308.080,120.050 308.461 C 120.155 308.567,120.358 308.283,120.502 307.832 C 120.869 306.676,122.478 305.729,124.576 305.434 L 126.367 305.183 124.805 305.132 C 123.867 305.101,122.745 305.384,121.998 305.840 M119.622 310.156 C 119.622 310.908,119.702 311.216,119.801 310.840 C 119.899 310.464,119.899 309.849,119.801 309.473 C 119.702 309.097,119.622 309.404,119.622 310.156 M173.242 311.527 C 170.664 311.786,169.434 312.008,170.508 312.021 C 171.582 312.034,174.746 311.819,177.539 311.542 C 180.534 311.245,181.656 311.042,180.273 311.048 C 178.984 311.053,175.820 311.269,173.242 311.527 M119.922 312.177 C 119.921 314.119,123.136 316.068,126.172 315.965 C 127.298 315.926,127.188 315.867,125.548 315.626 C 122.743 315.215,121.395 314.469,120.606 312.890 C 120.230 312.138,119.923 311.818,119.922 312.177 M165.332 312.389 C 165.923 312.479,166.890 312.479,167.480 312.389 C 168.071 312.300,167.588 312.226,166.406 312.226 C 165.225 312.226,164.741 312.300,165.332 312.389 M150.391 313.477 C 145.342 313.960,142.002 314.367,142.969 314.381 C 143.936 314.396,149.121 313.998,154.492 313.498 C 159.863 312.997,163.203 312.590,161.914 312.593 C 160.625 312.596,155.439 312.994,150.391 313.477 M137.402 314.736 C 138.101 314.822,139.243 314.822,139.941 314.736 C 140.640 314.649,140.068 314.578,138.672 314.578 C 137.275 314.578,136.704 314.649,137.402 314.736 M132.910 315.124 C 133.501 315.213,134.468 315.213,135.059 315.124 C 135.649 315.034,135.166 314.961,133.984 314.961 C 132.803 314.961,132.319 315.034,132.910 315.124 M128.619 315.515 C 129.212 315.604,130.091 315.602,130.572 315.509 C 131.052 315.417,130.566 315.343,129.492 315.346 C 128.418 315.349,128.025 315.425,128.619 315.515 " stroke="none" fill="#f2ebdc" fill-rule="evenodd"></path><path id="path1" d="M241.992 143.430 C 240.273 143.576,235.176 143.809,230.664 143.946 C 226.152 144.083,221.538 144.293,220.410 144.413 C 218.825 144.581,218.358 144.508,218.353 144.093 C 218.349 143.717,218.261 143.690,218.060 144.003 C 217.648 144.647,208.986 145.035,208.978 144.410 C 208.974 144.068,208.896 144.063,208.685 144.390 C 208.397 144.837,204.817 145.089,192.578 145.522 C 189.248 145.639,185.205 145.816,183.594 145.914 C 178.626 146.217,166.838 146.754,158.203 147.072 C 155.518 147.171,151.563 147.353,149.414 147.476 C 146.649 147.636,145.679 147.582,146.094 147.294 C 146.541 146.983,146.309 146.895,145.117 146.920 C 143.796 146.948,143.705 146.998,144.531 147.243 C 145.663 147.579,140.936 147.925,130.469 148.271 C 117.984 148.685,115.457 148.783,112.109 148.982 C 107.576 149.252,99.737 149.598,93.164 149.817 C 79.809 150.262,74.437 155.062,74.396 166.590 C 74.385 169.397,74.243 171.910,74.080 172.175 C 73.916 172.440,73.941 172.656,74.135 172.656 C 74.457 172.656,74.763 178.376,75.232 193.164 C 75.327 196.172,75.488 198.862,75.589 199.141 C 75.690 199.421,75.599 199.543,75.386 199.411 C 75.140 199.259,75.026 200.495,75.072 202.809 L 75.143 206.445 75.365 203.320 C 75.558 200.589,75.625 201.080,75.893 207.227 C 76.670 225.035,76.823 226.999,77.601 229.066 C 77.932 229.945,78.222 230.959,78.247 231.319 C 78.272 231.679,78.460 231.870,78.666 231.743 C 78.878 231.612,78.932 231.791,78.791 232.158 C 78.648 232.530,78.724 232.764,78.969 232.710 C 79.203 232.659,79.483 232.861,79.592 233.160 C 79.729 233.537,79.625 233.604,79.250 233.378 C 78.793 233.102,78.792 233.153,79.247 233.714 C 79.827 234.430,80.276 234.620,79.883 233.984 C 79.750 233.770,79.828 233.594,80.055 233.594 C 80.283 233.594,80.469 233.768,80.469 233.982 C 80.469 234.195,81.216 234.915,82.129 235.582 C 83.042 236.248,83.741 236.966,83.682 237.176 C 83.623 237.386,83.727 237.464,83.914 237.348 C 84.101 237.233,85.204 237.521,86.365 237.990 C 89.012 239.057,93.134 239.086,108.984 238.150 C 115.107 237.789,130.488 237.057,143.164 236.525 C 155.840 235.993,173.857 235.214,183.203 234.793 C 192.549 234.373,205.381 233.838,211.719 233.604 C 260.038 231.825,259.293 231.909,263.835 227.722 C 268.495 223.426,268.444 223.876,267.360 196.680 C 266.219 168.072,266.038 163.941,265.725 159.375 C 265.585 157.334,265.475 154.873,265.480 153.906 C 265.485 152.939,265.415 152.480,265.323 152.885 C 265.198 153.437,264.966 153.195,264.395 151.920 C 263.349 149.584,261.996 147.894,259.754 146.121 C 258.709 145.295,257.977 144.484,258.126 144.318 C 258.276 144.151,258.209 144.123,257.977 144.255 C 257.745 144.387,256.690 144.216,255.633 143.874 C 253.516 143.190,247.211 142.985,241.992 143.430 M165.723 145.972 C 166.099 146.071,166.714 146.071,167.090 145.972 C 167.466 145.874,167.158 145.794,166.406 145.794 C 165.654 145.794,165.347 145.874,165.723 145.972 M82.838 150.555 C 82.460 151.011,82.521 151.073,83.181 150.900 C 83.623 150.785,83.984 150.535,83.984 150.345 C 83.984 149.818,83.354 149.934,82.838 150.555 M202.757 174.609 C 207.522 175.933,207.993 182.648,203.475 184.866 C 202.345 185.420,200.285 185.627,192.738 185.945 C 187.601 186.161,177.334 186.602,169.922 186.925 C 162.510 187.248,147.832 187.859,137.305 188.283 C 126.777 188.707,115.967 189.158,113.281 189.285 C 105.464 189.655,101.587 185.979,104.786 181.231 C 106.737 178.336,101.512 178.831,156.445 176.336 C 173.026 175.582,199.509 174.346,200.586 174.275 C 201.016 174.246,201.992 174.397,202.757 174.609 M176.643 199.846 C 180.053 201.610,180.057 206.962,176.651 209.237 C 175.068 210.294,174.409 210.348,153.516 211.142 C 144.600 211.480,131.184 212.006,123.703 212.310 C 111.401 212.810,109.954 212.803,108.561 212.246 C 104.342 210.558,103.931 204.560,107.893 202.491 C 109.271 201.772,112.094 201.602,146.289 200.187 C 154.883 199.831,164.375 199.401,167.383 199.231 C 173.374 198.893,175.009 199.002,176.643 199.846 M75.107 212.109 C 75.140 212.539,75.294 212.891,75.449 212.891 C 75.605 212.891,75.706 212.539,75.674 212.109 C 75.641 211.680,75.488 211.328,75.332 211.328 C 75.176 211.328,75.075 211.680,75.107 212.109 " stroke="none" fill="#549ae5" fill-rule="evenodd"></path><path id="path2" d="M117.094 237.776 C 117.580 237.870,118.283 237.866,118.657 237.768 C 119.030 237.671,118.633 237.594,117.773 237.599 C 116.914 237.603,116.608 237.683,117.094 237.776 M117.188 252.224 C 113.213 252.490,108.467 252.862,106.641 253.049 C 104.814 253.237,101.870 253.364,100.097 253.332 C 98.324 253.300,97.094 253.413,97.363 253.584 C 97.730 253.817,97.706 253.897,97.266 253.904 C 94.600 253.949,89.593 258.122,87.981 261.643 C 86.468 264.949,86.455 268.120,87.889 285.547 C 88.301 290.553,88.307 291.406,87.932 291.406 C 87.698 291.406,87.576 291.927,87.654 292.594 C 87.852 294.295,88.272 294.507,88.334 292.936 C 88.394 291.429,89.372 301.231,89.421 303.832 C 89.443 304.989,89.315 305.430,89.012 305.242 C 88.742 305.075,88.647 305.180,88.768 305.512 C 88.876 305.810,89.132 306.021,89.335 305.980 C 89.759 305.895,90.818 318.477,90.795 323.335 C 90.787 325.104,90.919 326.335,91.088 326.069 C 91.260 325.797,91.401 326.438,91.410 327.539 C 91.424 329.349,91.651 330.731,92.339 333.203 L 92.611 334.180 91.982 333.203 C 91.612 332.630,91.444 332.522,91.575 332.942 C 91.697 333.336,91.797 333.819,91.797 334.016 C 91.797 334.214,92.017 334.383,92.285 334.394 C 92.554 334.404,93.388 335.382,94.139 336.568 C 97.376 341.678,102.051 343.140,112.139 342.198 C 125.323 340.966,132.311 340.525,139.323 340.480 C 143.656 340.452,147.334 340.297,147.496 340.134 C 147.659 339.972,146.620 339.891,145.188 339.955 C 140.367 340.171,143.111 339.570,149.023 339.115 C 156.401 338.547,157.154 338.548,156.799 339.123 C 156.625 339.405,156.692 339.468,156.977 339.291 C 157.229 339.136,157.348 338.868,157.241 338.696 C 157.015 338.329,168.381 337.308,172.717 337.306 C 174.361 337.305,175.625 337.173,175.526 337.012 C 175.426 336.851,176.278 336.744,177.418 336.774 L 179.492 336.830 177.930 337.109 L 176.367 337.389 178.264 337.445 C 179.676 337.486,180.112 337.370,179.967 336.992 C 179.752 336.431,210.122 333.728,212.215 334.122 C 212.838 334.240,213.201 334.171,213.071 333.960 C 212.941 333.750,213.699 333.594,214.844 333.594 C 215.943 333.594,216.753 333.740,216.643 333.918 C 216.533 334.096,216.830 334.199,217.303 334.146 C 218.588 334.002,218.624 333.959,217.773 333.594 C 217.063 333.288,217.083 333.256,217.991 333.231 C 218.886 333.206,244.251 331.166,249.609 330.688 C 261.181 329.655,263.356 329.567,263.745 330.113 C 264.062 330.559,264.097 330.541,263.931 330.019 C 263.775 329.527,264.062 329.311,265.146 329.107 C 265.926 328.961,267.228 328.503,268.039 328.089 C 268.849 327.676,269.736 327.383,270.010 327.438 C 270.284 327.494,270.465 327.323,270.413 327.058 C 270.360 326.794,270.782 326.273,271.349 325.901 C 271.916 325.530,272.858 324.566,273.443 323.759 C 274.027 322.952,274.587 322.374,274.688 322.474 C 274.788 322.574,274.889 322.437,274.913 322.168 C 274.937 321.899,275.351 320.414,275.833 318.866 L 276.709 316.053 275.824 304.022 C 275.338 297.406,274.910 290.384,274.872 288.419 C 274.835 286.454,274.699 284.910,274.569 284.988 C 274.440 285.067,274.220 283.599,274.080 281.726 C 273.432 273.026,273.054 269.382,272.770 269.102 C 272.600 268.934,269.473 268.518,265.820 268.177 C 258.995 267.540,254.867 267.094,249.414 266.405 C 245.601 265.924,223.876 263.442,218.750 262.902 C 216.709 262.688,211.963 262.153,208.203 261.714 C 204.443 261.275,197.324 260.478,192.383 259.942 C 166.519 257.137,131.306 252.881,128.125 252.175 C 126.729 251.865,125.322 251.640,125.000 251.675 C 124.678 251.710,121.162 251.957,117.188 252.224 M218.948 274.612 C 221.370 276.887,221.603 280.589,219.476 283.011 C 218.016 284.674,216.970 284.951,209.961 285.530 C 204.557 285.977,189.373 287.320,149.805 290.851 C 122.861 293.255,121.549 293.314,119.745 292.199 C 116.262 290.047,116.305 284.054,119.815 282.452 C 121.216 281.812,117.613 282.161,174.805 277.128 C 185.977 276.145,199.424 274.925,204.688 274.419 C 215.912 273.338,217.616 273.361,218.948 274.612 M87.621 288.867 C 87.623 290.156,87.696 290.637,87.783 289.934 C 87.870 289.232,87.868 288.178,87.779 287.591 C 87.690 287.004,87.619 287.578,87.621 288.867 M186.719 300.258 C 191.237 302.927,189.866 309.848,184.605 310.927 C 181.683 311.526,125.835 316.116,124.152 315.896 C 119.772 315.321,117.886 309.757,121.012 306.631 C 122.741 304.902,122.038 305.032,135.742 303.908 C 141.113 303.468,150.254 302.667,156.055 302.128 C 187.192 299.236,185.195 299.358,186.719 300.258 M87.996 303.561 C 88.377 303.777,88.586 304.119,88.462 304.321 C 88.337 304.523,88.421 304.688,88.649 304.688 C 89.508 304.688,89.062 303.291,88.184 303.230 C 87.404 303.175,87.383 303.212,87.996 303.561 M90.724 328.320 C 90.728 329.180,90.808 329.485,90.901 328.999 C 90.995 328.513,90.991 327.810,90.893 327.437 C 90.796 327.063,90.719 327.461,90.724 328.320 M180.620 337.000 C 180.900 337.281,183.642 337.180,183.952 336.878 C 184.041 336.790,183.265 336.719,182.227 336.719 C 181.188 336.719,180.465 336.845,180.620 337.000 M141.504 340.119 C 141.021 340.213,140.229 340.213,139.746 340.119 C 139.263 340.026,139.658 339.950,140.625 339.950 C 141.592 339.950,141.987 340.026,141.504 340.119 M103.112 343.114 C 103.462 343.462,108.922 343.552,109.259 343.215 C 109.362 343.112,107.944 342.971,106.108 342.901 C 104.210 342.828,102.917 342.920,103.112 343.114 " stroke="none" fill="#73bd83" fill-rule="evenodd"></path><path id="path3" d="M266.937 185.645 C 268.652 225.148,268.807 223.112,263.706 227.835 C 259.192 232.014,260.688 231.842,213.867 233.582 C 197.610 234.186,193.724 234.346,180.273 234.961 C 161.572 235.816,142.104 236.658,130.273 237.124 C 117.484 237.629,118.698 237.261,118.834 240.586 C 118.894 242.076,119.017 243.223,119.106 243.134 C 119.406 242.833,120.702 246.169,120.446 246.584 C 120.306 246.811,120.367 246.888,120.581 246.755 C 120.795 246.623,121.349 247.028,121.813 247.656 C 122.764 248.942,122.889 249.405,122.168 248.972 C 121.836 248.772,121.852 248.890,122.216 249.339 C 122.796 250.055,123.245 250.245,122.852 249.609 C 122.719 249.395,122.786 249.219,123.001 249.219 C 123.216 249.219,123.504 249.402,123.643 249.625 C 124.152 250.449,126.814 251.846,128.711 252.285 C 131.307 252.885,168.025 257.301,192.383 259.942 C 197.324 260.478,204.443 261.275,208.203 261.714 C 211.963 262.153,216.709 262.688,218.750 262.902 C 223.876 263.442,245.601 265.924,249.414 266.405 C 254.753 267.080,258.942 267.534,265.560 268.156 C 269.069 268.485,272.672 268.918,273.568 269.116 C 283.429 271.303,294.925 271.308,299.242 269.129 C 300.467 268.511,301.578 268.085,301.711 268.182 C 301.844 268.280,301.871 268.248,301.771 268.112 C 301.670 267.976,302.306 267.053,303.184 266.061 C 304.062 265.069,304.964 263.862,305.187 263.379 C 305.411 262.896,305.752 262.500,305.945 262.500 C 306.138 262.500,306.213 262.365,306.111 262.201 C 306.010 262.036,306.151 261.026,306.426 259.955 C 306.701 258.884,307.329 254.580,307.821 250.391 C 308.314 246.201,308.821 242.686,308.948 242.578 C 309.075 242.471,309.210 241.504,309.248 240.430 C 309.409 235.813,311.907 217.377,312.132 219.141 C 312.277 220.272,312.362 219.507,312.370 216.992 C 312.378 214.844,312.718 210.449,313.126 207.227 C 314.152 199.116,314.122 193.656,313.041 191.602 C 312.588 190.742,312.304 189.795,312.410 189.496 C 312.515 189.198,312.431 189.059,312.222 189.188 C 311.816 189.439,309.904 187.130,310.074 186.592 C 310.130 186.415,310.008 186.374,309.803 186.500 C 309.599 186.627,308.615 186.179,307.617 185.506 C 305.030 183.760,303.079 183.284,295.461 182.541 C 291.752 182.179,288.777 181.785,288.850 181.664 C 288.923 181.544,287.639 181.415,285.995 181.379 C 284.352 181.342,279.724 180.946,275.710 180.500 C 271.696 180.053,268.022 179.688,267.545 179.688 L 266.679 179.688 266.937 185.645 M309.083 244.727 C 309.087 245.586,309.167 245.892,309.261 245.406 C 309.354 244.920,309.351 244.217,309.253 243.843 C 309.155 243.470,309.079 243.867,309.083 244.727 M285.110 271.356 C 285.836 271.666,286.697 271.817,287.021 271.693 C 287.856 271.372,287.555 271.230,285.547 270.997 L 283.789 270.793 285.110 271.356 " stroke="none" fill="#ef9e50" fill-rule="evenodd"></path><path id="path4" d="M245.801 143.238 C 246.177 143.336,246.792 143.336,247.168 143.238 C 247.544 143.140,247.236 143.059,246.484 143.059 C 245.732 143.059,245.425 143.140,245.801 143.238 M237.207 143.639 C 237.798 143.729,238.765 143.729,239.355 143.639 C 239.946 143.550,239.463 143.476,238.281 143.476 C 237.100 143.476,236.616 143.550,237.207 143.639 M228.613 144.030 C 229.204 144.119,230.171 144.119,230.762 144.030 C 231.353 143.940,230.869 143.867,229.688 143.867 C 228.506 143.867,228.022 143.940,228.613 144.030 M219.043 144.416 C 219.526 144.509,220.317 144.509,220.801 144.416 C 221.284 144.323,220.889 144.247,219.922 144.247 C 218.955 144.247,218.560 144.323,219.043 144.416 M210.454 144.808 C 210.940 144.901,211.643 144.897,212.016 144.800 C 212.390 144.702,211.992 144.625,211.133 144.630 C 210.273 144.634,209.968 144.714,210.454 144.808 M201.270 145.191 C 201.646 145.289,202.261 145.289,202.637 145.191 C 203.013 145.093,202.705 145.013,201.953 145.013 C 201.201 145.013,200.894 145.093,201.270 145.191 M191.113 145.592 C 191.704 145.682,192.671 145.682,193.262 145.592 C 193.853 145.503,193.369 145.430,192.188 145.430 C 191.006 145.430,190.522 145.503,191.113 145.592 M174.519 146.377 C 175.221 146.464,176.275 146.462,176.862 146.373 C 177.449 146.284,176.875 146.213,175.586 146.215 C 174.297 146.217,173.817 146.290,174.519 146.377 M165.144 146.767 C 165.846 146.854,166.900 146.853,167.487 146.763 C 168.074 146.674,167.500 146.603,166.211 146.605 C 164.922 146.608,164.442 146.681,165.144 146.767 M156.152 147.158 C 156.851 147.244,157.993 147.244,158.691 147.158 C 159.390 147.071,158.818 147.000,157.422 147.000 C 156.025 147.000,155.454 147.071,156.152 147.158 M146.582 147.545 C 147.173 147.635,148.140 147.635,148.730 147.545 C 149.321 147.456,148.838 147.383,147.656 147.383 C 146.475 147.383,145.991 147.456,146.582 147.545 M138.191 147.939 C 138.893 148.026,139.947 148.024,140.534 147.935 C 141.121 147.846,140.547 147.775,139.258 147.777 C 137.969 147.779,137.488 147.852,138.191 147.939 M110.645 149.097 C 111.021 149.196,111.636 149.196,112.012 149.097 C 112.388 148.999,112.080 148.919,111.328 148.919 C 110.576 148.919,110.269 148.999,110.645 149.097 M100.879 149.499 C 101.470 149.588,102.437 149.588,103.027 149.499 C 103.618 149.409,103.135 149.336,101.953 149.336 C 100.771 149.336,100.288 149.409,100.879 149.499 M266.106 167.578 C 266.106 168.330,266.187 168.638,266.285 168.262 C 266.383 167.886,266.383 167.271,266.285 166.895 C 266.187 166.519,266.106 166.826,266.106 167.578 M184.961 175.020 C 176.797 175.402,163.965 175.994,156.445 176.336 C 107.808 178.545,108.061 178.531,106.837 179.243 C 104.357 180.688,103.004 184.589,104.474 186.058 C 104.786 186.370,104.950 186.717,104.839 186.828 C 104.727 186.939,105.296 187.532,106.102 188.144 C 108.075 189.644,104.901 189.700,165.430 187.111 C 175.313 186.688,187.573 186.166,192.676 185.950 C 202.321 185.542,203.788 185.273,205.236 183.648 C 205.646 183.188,205.853 182.813,205.697 182.813 C 205.541 182.813,205.708 182.517,206.069 182.156 C 208.605 179.620,204.698 174.003,200.586 174.275 C 200.156 174.303,193.125 174.639,184.961 175.020 M167.383 199.231 C 164.375 199.401,154.883 199.831,146.289 200.187 C 112.697 201.577,109.254 201.780,107.979 202.446 C 106.800 203.063,105.503 204.297,106.035 204.297 C 106.184 204.297,106.010 204.592,105.649 204.954 C 104.764 205.839,105.059 208.874,106.183 210.453 C 107.896 212.858,108.533 212.926,123.703 212.310 C 131.184 212.006,144.600 211.480,153.516 211.142 C 174.409 210.348,175.068 210.294,176.651 209.237 C 180.057 206.962,180.053 201.610,176.643 199.846 C 175.009 199.002,173.374 198.893,167.383 199.231 M102.641 238.558 C 103.127 238.651,103.830 238.647,104.204 238.550 C 104.577 238.452,104.180 238.375,103.320 238.380 C 102.461 238.384,102.155 238.464,102.641 238.558 M214.746 273.713 C 215.229 273.806,216.021 273.806,216.504 273.713 C 216.987 273.620,216.592 273.544,215.625 273.544 C 214.658 273.544,214.263 273.620,214.746 273.713 M210.454 274.320 C 210.827 274.487,209.902 274.546,208.398 274.452 C 206.516 274.333,205.908 274.394,206.445 274.646 C 206.980 274.897,206.240 274.965,204.102 274.861 C 202.054 274.763,201.313 274.826,201.953 275.044 C 202.593 275.263,201.854 275.326,199.805 275.228 C 197.710 275.128,196.937 275.197,197.461 275.437 C 197.981 275.676,197.199 275.740,195.117 275.630 C 193.001 275.519,192.307 275.578,192.969 275.813 C 193.630 276.049,192.874 276.113,190.625 276.012 C 188.402 275.913,187.627 275.978,188.281 276.208 C 188.943 276.441,188.251 276.505,186.133 276.406 C 183.979 276.306,183.372 276.364,184.180 276.593 C 184.988 276.821,184.321 276.885,182.031 276.798 C 179.871 276.716,179.052 276.787,179.688 277.001 C 180.325 277.216,179.579 277.283,177.539 277.193 C 175.820 277.117,174.854 277.177,175.391 277.326 C 176.691 277.688,168.994 278.259,166.947 277.953 C 165.756 277.775,165.598 277.813,166.211 278.128 C 166.787 278.424,166.170 278.486,163.867 278.365 C 161.750 278.253,161.057 278.312,161.719 278.548 C 162.385 278.785,161.703 278.847,159.570 278.743 C 157.440 278.639,156.756 278.701,157.422 278.938 C 158.094 279.177,157.486 279.237,155.469 279.131 C 153.477 279.026,152.789 279.092,153.320 279.338 C 153.848 279.583,153.089 279.651,150.977 279.549 C 148.929 279.450,148.188 279.513,148.828 279.732 C 149.473 279.952,148.744 280.018,146.680 279.927 C 144.615 279.836,143.886 279.902,144.531 280.122 C 145.176 280.343,144.447 280.409,142.383 280.318 C 140.318 280.226,139.589 280.293,140.234 280.513 C 140.880 280.733,140.150 280.800,138.086 280.708 C 136.025 280.617,135.294 280.684,135.938 280.903 C 136.572 281.119,135.750 281.185,133.594 281.091 C 131.403 280.996,130.539 281.067,131.055 281.300 C 131.567 281.533,130.760 281.594,128.711 281.478 C 126.574 281.357,125.833 281.419,126.367 281.671 C 126.913 281.929,126.337 281.993,124.457 281.881 C 122.651 281.774,121.944 281.846,122.308 282.099 C 122.694 282.368,122.490 282.433,121.603 282.325 C 120.916 282.241,120.443 282.317,120.551 282.493 C 120.660 282.669,120.475 282.834,120.140 282.861 C 119.805 282.888,119.312 282.932,119.043 282.959 C 118.774 282.986,118.533 283.228,118.506 283.496 C 118.479 283.765,118.435 284.171,118.408 284.398 C 118.381 284.626,118.186 284.704,117.973 284.573 C 117.744 284.431,117.692 284.607,117.844 285.005 C 117.987 285.376,117.941 285.576,117.742 285.453 C 117.541 285.328,117.383 286.142,117.383 287.305 C 117.383 288.467,117.541 289.281,117.742 289.156 C 117.941 289.034,117.987 289.234,117.844 289.605 C 117.671 290.056,117.735 290.184,118.040 289.995 C 118.340 289.810,118.410 289.930,118.248 290.353 C 117.956 291.113,118.524 291.580,119.945 291.748 C 120.172 291.775,120.251 291.971,120.120 292.183 C 119.978 292.412,120.153 292.465,120.552 292.312 C 120.922 292.170,121.124 292.216,121.003 292.414 C 120.876 292.623,122.338 292.780,124.485 292.789 C 126.682 292.799,127.896 292.677,127.472 292.489 C 127.060 292.307,127.915 292.241,129.492 292.334 C 131.366 292.444,131.919 292.386,131.250 292.152 C 130.588 291.920,131.280 291.854,133.398 291.948 C 135.463 292.039,136.192 291.973,135.547 291.753 C 134.902 291.532,135.631 291.466,137.695 291.557 C 139.734 291.647,140.481 291.581,139.844 291.366 C 139.209 291.152,140.027 291.080,142.185 291.162 C 144.288 291.242,145.218 291.164,144.724 290.950 C 144.233 290.737,145.027 290.673,146.875 290.778 C 148.859 290.891,149.553 290.828,149.023 290.583 C 148.494 290.338,149.188 290.275,151.172 290.388 C 153.153 290.501,153.849 290.438,153.320 290.193 C 152.792 289.949,153.552 289.880,155.664 289.982 C 157.711 290.081,158.452 290.018,157.813 289.799 C 157.172 289.581,157.912 289.517,159.961 289.615 C 162.050 289.715,162.827 289.646,162.305 289.407 C 161.783 289.169,162.560 289.100,164.648 289.201 C 166.697 289.300,167.437 289.237,166.797 289.018 C 166.164 288.802,166.988 288.737,169.141 288.836 C 171.433 288.940,172.098 288.882,171.289 288.649 C 170.465 288.411,171.103 288.348,173.438 288.437 C 175.598 288.519,176.417 288.448,175.781 288.233 C 175.149 288.020,175.906 287.956,177.930 288.053 C 180.022 288.153,180.796 288.084,180.273 287.844 C 179.750 287.605,180.460 287.542,182.422 287.653 C 184.406 287.766,185.099 287.703,184.570 287.458 C 184.041 287.213,184.734 287.150,186.719 287.263 C 188.705 287.376,189.397 287.313,188.867 287.067 C 188.341 286.823,189.105 286.758,191.211 286.870 C 193.326 286.981,194.020 286.922,193.359 286.687 C 192.682 286.446,193.281 286.384,195.313 286.483 C 197.287 286.579,197.924 286.516,197.266 286.289 C 196.619 286.065,197.410 285.997,199.609 286.085 C 201.764 286.172,202.587 286.103,201.953 285.889 C 201.322 285.675,202.152 285.608,204.297 285.699 C 206.509 285.793,207.226 285.732,206.445 285.516 C 205.650 285.296,206.338 285.230,208.592 285.310 C 210.683 285.385,211.621 285.305,211.131 285.093 C 210.639 284.882,211.431 284.812,213.281 284.906 C 215.160 285.001,215.931 284.932,215.430 284.713 C 214.837 284.456,214.996 284.401,216.086 284.488 C 216.933 284.555,217.428 284.448,217.291 284.227 C 217.157 284.010,217.342 283.960,217.730 284.109 C 218.098 284.250,218.336 284.236,218.257 284.078 C 218.060 283.681,219.812 282.052,220.112 282.352 C 220.245 282.485,220.227 282.262,220.071 281.858 C 219.910 281.438,219.943 281.217,220.148 281.344 C 220.351 281.469,220.508 280.579,220.508 279.297 C 220.508 278.049,220.376 277.109,220.215 277.209 C 219.948 277.374,219.749 276.438,219.885 275.655 C 219.916 275.477,219.785 275.429,219.593 275.548 C 219.234 275.770,217.842 274.478,218.127 274.187 C 218.215 274.097,216.371 274.022,214.030 274.020 C 211.688 274.018,210.080 274.153,210.454 274.320 M220.794 279.297 C 220.794 280.049,220.874 280.356,220.972 279.980 C 221.071 279.604,221.071 278.989,220.972 278.613 C 220.874 278.237,220.794 278.545,220.794 279.297 M183.984 300.062 C 183.447 300.283,181.777 300.376,180.273 300.267 C 178.770 300.159,177.891 300.205,178.320 300.370 C 179.348 300.764,172.175 301.316,170.091 301.003 C 168.890 300.823,168.725 300.861,169.336 301.175 C 169.913 301.471,169.299 301.535,166.992 301.419 C 164.857 301.311,164.238 301.366,165.039 301.593 C 165.851 301.823,165.250 301.881,163.086 301.783 C 160.998 301.689,160.220 301.760,160.742 301.997 C 161.270 302.238,160.636 302.304,158.789 302.200 C 156.971 302.099,156.316 302.165,156.836 302.398 C 157.350 302.628,156.617 302.695,154.688 302.592 C 152.745 302.489,152.087 302.550,152.734 302.771 C 153.388 302.996,152.701 303.063,150.655 302.977 C 148.682 302.894,147.782 302.978,148.116 303.214 C 148.446 303.447,147.503 303.507,145.508 303.378 C 143.379 303.241,142.632 303.295,143.164 303.548 C 143.706 303.806,143.047 303.868,141.016 303.751 C 138.999 303.634,138.390 303.691,139.063 303.932 C 139.730 304.172,138.990 304.237,136.719 304.138 C 134.529 304.043,133.665 304.114,134.180 304.347 C 134.697 304.581,133.970 304.644,132.031 304.532 C 130.007 304.415,129.403 304.472,130.078 304.715 C 130.742 304.954,129.928 305.019,127.539 304.919 C 125.220 304.821,124.422 304.882,125.195 305.097 C 126.216 305.382,126.133 305.414,124.549 305.349 C 123.523 305.306,122.828 305.430,122.953 305.633 C 123.080 305.838,122.859 305.871,122.439 305.710 C 122.035 305.555,121.812 305.536,121.945 305.669 C 122.245 305.969,120.616 307.721,120.219 307.524 C 120.061 307.446,120.047 307.683,120.188 308.052 C 120.330 308.423,120.285 308.623,120.086 308.500 C 119.886 308.376,119.727 309.112,119.727 310.156 C 119.727 311.189,119.886 311.936,120.081 311.816 C 120.276 311.695,120.336 311.976,120.215 312.439 C 120.094 312.903,120.154 313.184,120.349 313.063 C 120.670 312.865,120.868 313.409,120.749 314.160 C 120.724 314.321,120.835 314.425,120.996 314.390 C 121.157 314.355,121.784 314.531,122.389 314.781 C 122.994 315.030,123.697 315.237,123.951 315.240 C 124.296 315.245,124.299 315.320,123.965 315.533 C 123.718 315.691,124.629 315.824,125.990 315.827 C 127.447 315.832,128.274 315.698,128.002 315.503 C 127.741 315.316,128.819 315.261,130.469 315.377 C 132.496 315.519,133.158 315.466,132.617 315.206 C 132.072 314.943,132.780 314.880,134.961 314.995 C 137.069 315.106,137.768 315.047,137.109 314.813 C 136.449 314.579,137.209 314.514,139.453 314.612 C 141.618 314.706,142.502 314.635,141.992 314.407 C 141.479 314.177,142.283 314.106,144.336 314.200 C 146.323 314.291,147.177 314.219,146.680 314.003 C 146.180 313.786,146.954 313.717,148.828 313.812 C 150.738 313.908,151.486 313.839,150.977 313.614 C 150.472 313.391,151.302 313.322,153.320 313.420 C 155.364 313.518,156.107 313.455,155.469 313.238 C 154.830 313.020,155.641 312.951,157.813 313.038 C 159.958 313.125,160.787 313.056,160.156 312.843 C 159.530 312.632,160.371 312.566,162.500 312.659 C 164.691 312.754,165.555 312.683,165.039 312.450 C 164.524 312.216,165.324 312.152,167.383 312.260 C 169.491 312.372,170.190 312.312,169.531 312.079 C 168.867 311.844,169.617 311.776,171.875 311.867 C 174.030 311.953,174.853 311.884,174.219 311.670 C 173.588 311.456,174.418 311.389,176.563 311.480 C 178.798 311.575,179.500 311.514,178.711 311.294 C 177.919 311.073,178.617 311.011,180.859 311.104 C 183.018 311.193,183.906 311.119,183.398 310.893 C 182.797 310.626,182.949 310.572,184.055 310.660 C 184.889 310.726,185.396 310.619,185.263 310.404 C 185.130 310.189,185.404 310.130,185.915 310.264 C 186.400 310.390,186.711 310.409,186.607 310.305 C 186.361 310.059,188.398 307.934,188.733 308.087 C 188.874 308.151,188.890 307.825,188.769 307.361 C 188.648 306.898,188.708 306.616,188.903 306.736 C 189.098 306.855,189.262 306.190,189.267 305.257 C 189.273 304.325,189.204 303.634,189.115 303.723 C 188.865 303.974,187.565 301.407,187.769 301.065 C 187.868 300.898,187.804 300.787,187.627 300.818 C 186.880 300.948,186.297 300.758,186.489 300.447 C 186.602 300.263,186.217 300.178,185.633 300.257 C 184.718 300.381,184.679 300.350,185.352 300.033 C 186.441 299.519,185.240 299.544,183.984 300.062 " stroke="none" fill="#afd8dd" fill-rule="evenodd"></path></g></svg>